<svg viewBox="0 0 1010 1010" xmlns="http://www.w3.org/2000/svg">

  <g stroke="#000000" fill="#000000" stroke-width="5">
    <circle id="barometerBackground" cx="505" cy="505" r="500" fill="none"/>
    <rect x="498" y="6" width="5" height="80" transform="rotate(-120, 500, 500)" />
    <rect x="498" y="6" width="5" height="80" transform="rotate(-100, 500, 500)" />
    <rect x="498" y="6" width="5" height="80" transform="rotate( -80, 500, 500)" />
    <rect x="498" y="6" width="5" height="80" transform="rotate( -60, 500, 500)" />
    <rect x="498" y="6" width="5" height="80" transform="rotate( -40, 500, 500)" />
    <rect x="498" y="6" width="5" height="80" transform="rotate( -20, 500, 500)" />
    <rect x="498" y="6" width="5" height="80" />
    <rect x="498" y="6" width="5" height="80" transform="rotate(  20, 500, 500)" />
    <rect x="498" y="6" width="5" height="80" transform="rotate(  40, 500, 500)" />
    <rect x="498" y="6" width="5" height="80" transform="rotate(  60, 500, 500)" />
    <rect x="498" y="6" width="5" height="80" transform="rotate(  80, 500, 500)" />
    <rect x="498" y="6" width="5" height="80" transform="rotate( 100, 500, 500)" />
    <rect x="498" y="6" width="5" height="80" transform="rotate( 120, 500, 500)" />
  </g>

  <!--polyline id="barometerNeedle" points="50,5 53,50 50,60 47,50" fill="black" stroke="black" /-->
  <g stroke="#999999" fill="#999999" transform="translate(10, 5)">
    <polyline points="505,110 512,605 498,605" />
    <circle cx="505" cy="625" r="20" stroke-width="5" fill="none" />
    <circle cx="505" cy="505" r="20" />
  </g>
  <g stroke="black" fill="black">
    <polyline points="505,110 512,605 498,605" />
    <circle cx="505" cy="625" r="20" stroke-width="5" fill="none" />
    <circle cx="505" cy="505" r="20" />
  </g>
  <!-- 940 - 1060 -->
  <!-- 940, 950, 960, 970, 980, 990, 1000, 1010, 1020, 1030, 1040, 1050, 1060 -->
</svg>
